<?xml version="1.0" encoding="UTF-8" standalone="no"?>
<svg width="32px" height="32px" viewBox="0 0 32 32" version="1.1" xmlns="http://www.w3.org/2000/svg" xmlns:xlink="http://www.w3.org/1999/xlink">
    <!-- Generator: Sketch 40.3 (33839) - http://www.bohemiancoding.com/sketch -->
    <title>dribbble</title>
    <desc>Created with Sketch.</desc>
    <defs></defs>
    <g id="Page-1" stroke="none" stroke-width="1" fill="none" fill-rule="evenodd">
        <g id="dribbble" fill="#FFFFFF">
            <g id="Page-1">
                <g id="Dribbble-white">
                    <g id="Icons">
                        <g id="White">
                            <path d="M23.6363847,27.3323534 C23.4971485,26.5083193 22.7689774,22.4972661 20.9758337,17.5737551 C25.3881343,16.8682463 29.2096195,18.077959 29.491856,18.1701454 C28.8841064,21.9780118 26.7033572,25.2609795 23.6363847,27.3323534 L23.6363847,27.3323534 L23.6363847,27.3323534 L23.6363847,27.3323534 L23.6363847,27.3323534 Z M16.0009405,29.6652362 C12.6931263,29.6652362 9.66002226,28.4893878 7.29487861,26.532777 C7.47551026,26.6795228 7.60157565,26.7717092 7.60157565,26.7717092 C7.60157565,26.7717092 10.2207325,21.0599096 18.3246901,18.235993 C18.3547951,18.2247047 18.3867819,18.2171791 18.416887,18.2077725 C20.3398602,23.202775 21.1320042,27.3869127 21.3352146,28.5815743 C19.6963603,29.2776765 17.891927,29.6652362 16.0009405,29.6652362 L16.0009405,29.6652362 L16.0009405,29.6652362 L16.0009405,29.6652362 L16.0009405,29.6652362 Z M2.33503861,15.9990595 C2.33503861,15.8541948 2.34256487,15.7112118 2.34632765,15.5682289 C2.58905183,15.5738727 9.34015374,15.7262623 16.3753746,13.621024 C16.766743,14.3867367 17.141177,15.1674998 17.4836243,15.9445002 C17.3029927,15.993415 17.1242428,16.0479743 16.9454929,16.1081781 C9.57158817,18.4899757 5.83101078,25.1236403 5.83101078,25.1236403 C5.83101078,25.1236403 5.8366553,25.1292842 5.8366553,25.1311659 C3.65966957,22.7098595 2.33503861,19.5096717 2.33503861,15.9990595 L2.33503861,15.9990595 L2.33503861,15.9990595 L2.33503861,15.9990595 L2.33503861,15.9990595 Z M10.1699297,3.64418852 C10.3524431,3.88688348 12.8794024,7.31283409 15.2445461,11.5157857 C8.68348313,13.2598038 2.98794643,13.1901934 2.62856487,13.1845496 C3.51478817,8.95149635 6.35785252,5.44276591 10.1699297,3.64418852 L10.1699297,3.64418852 L10.1699297,3.64418852 L10.1699297,3.64418852 L10.1699297,3.64418852 Z M12.7269948,2.73361183 C12.7269948,2.73549287 12.725113,2.73737461 12.725113,2.73737461 C12.725113,2.73737461 12.7081788,2.74113739 12.6837183,2.74489948 C12.6987708,2.74113739 12.7119423,2.73925565 12.7269948,2.73361183 L12.7269948,2.73361183 L12.7269948,2.73361183 L12.7269948,2.73361183 L12.7269948,2.73361183 Z M25.0249899,5.74754574 C24.9911214,5.79834226 23.0455694,8.76147896 17.8862824,10.6936327 C15.5512438,6.40225739 12.9847708,2.99323896 12.7796786,2.72232348 C13.812665,2.47210296 14.8908097,2.33664557 16.0009405,2.33664557 C19.4592814,2.33664557 22.6184515,3.62725635 25.0249899,5.74754574 L25.0249899,5.74754574 L25.0249899,5.74754574 L25.0249899,5.74754574 L25.0249899,5.74754574 Z M29.6611986,15.8636014 C29.4636327,15.8203304 24.8387137,14.8250929 20.144176,15.4158386 C20.0463339,15.1825503 19.9503736,14.9473809 19.848768,14.7122115 C19.5646497,14.042448 19.2579527,13.3802108 18.9399659,12.7292612 C24.3363318,10.526192 26.526489,7.35986852 26.5528313,7.32224139 C28.4682776,9.64947965 29.6292118,12.6220237 29.6611986,15.8636014 L29.6611986,15.8636014 L29.6611986,15.8636014 L29.6611986,15.8636014 L29.6611986,15.8636014 Z M31.6763687,12.7800577 C31.465632,11.7528369 31.149527,10.7387854 30.7412243,9.77176765 C30.3423297,8.82356383 29.8437113,7.90922435 29.2660668,7.0550887 C28.6959485,6.20847791 28.0373962,5.41078261 27.3148703,4.68834157 C26.5904626,3.96401878 25.7945551,3.30742539 24.9459631,2.73549287 C24.0917266,2.15603478 23.17728,1.66123826 22.2289649,1.25862748 C21.261833,0.852254609 20.2495443,0.536186435 19.2222024,0.327355826 C18.168519,0.111000348 17.0847297,0 16.0009405,0 C14.9152703,0 13.831481,0.111000348 12.7777976,0.327355826 C11.7504557,0.536186435 10.738167,0.852254609 9.77103513,1.25862748 C8.82272,1.66123826 7.90827339,2.15603478 7.05215513,2.73549287 C6.20544487,3.30742539 5.40953739,3.96401878 4.68512974,4.68834157 C3.96260383,5.41078261 3.30593252,6.20847791 2.73393322,7.0550887 C2.1562887,7.90922435 1.65767026,8.82356383 1.25877565,9.77176765 C0.848592,10.7387854 0.534368,11.7528369 0.323631304,12.7800577 C0.109131826,13.8317363 0,14.9153976 0,15.9990595 C0,17.0864835 0.109131826,18.1701454 0.323631304,19.223705 C0.534368,20.2509259 0.848592,21.2630963 1.25877565,22.2282323 C1.65767026,23.1764362 2.1562887,24.0945384 2.73393322,24.9486741 C3.30593252,25.7952849 3.96260383,26.5892174 4.68512974,27.3154212 C5.40953739,28.0378623 6.20544487,28.6925746 7.05215513,29.2663882 C7.90827339,29.8439652 8.82272,30.3406435 9.77103513,30.7413725 C10.738167,31.1515082 11.7504557,31.4638136 12.7777976,31.6726442 C13.831481,31.8908814 14.9152703,32 16.0009405,32 C17.0847297,32 18.168519,31.8908814 19.2222024,31.6726442 C20.2495443,31.4638136 21.261833,31.1515082 22.2289649,30.7413725 C23.17728,30.3406435 24.0917266,29.8439652 24.9459631,29.2663882 C25.7945551,28.6925746 26.5904626,28.0378623 27.3148703,27.3154212 C28.0373962,26.5892174 28.6959485,25.7952849 29.2660668,24.9486741 C29.8437113,24.0945384 30.3423297,23.1764362 30.7412243,22.2282323 C31.149527,21.2630963 31.465632,20.2509259 31.6763687,19.223705 C31.8908682,18.1701454 32,17.0864835 32,15.9990595 C32,14.9153976 31.8908682,13.8317363 31.6763687,12.7800577 L31.6763687,12.7800577 L31.6763687,12.7800577 L31.6763687,12.7800577 L31.6763687,12.7800577 Z" id="Dribbble"></path>
                        </g>
                    </g>
                </g>
            </g>
        </g>
    </g>
</svg>