<?xml version="1.0" encoding="UTF-8" standalone="no"?>
<svg width="46px" height="46px" viewBox="0 0 46 46" version="1.1" xmlns="http://www.w3.org/2000/svg" xmlns:xlink="http://www.w3.org/1999/xlink">
    <!-- Generator: Sketch 40 (33762) - http://www.bohemiancoding.com/sketch -->
    <title>Slice 1</title>
    <desc>Created with Sketch.</desc>
    <defs></defs>
    <g id="Page-1" stroke="none" stroke-width="1" fill="none" fill-rule="evenodd">
        <g id="Dribbble-white" fill="#FFFFFF">
            <g id="Icons">
                <g id="White">
                    <path d="M33.977303,39.290258 C33.777151,38.105709 32.730405,32.33982 30.152761,25.262273 C36.495443,24.248104 41.988828,25.987066 42.394543,26.119584 C41.520903,31.593392 38.386076,36.312658 33.977303,39.290258 L33.977303,39.290258 L33.977303,39.290258 L33.977303,39.290258 Z M23.001352,42.643777 C18.246369,42.643777 13.886282,40.953495 10.486388,38.140867 C10.746046,38.351814 10.927265,38.484332 10.927265,38.484332 C10.927265,38.484332 14.692303,30.27362 26.341742,26.21424 C26.385018,26.198013 26.430999,26.187195 26.474275,26.173673 C29.238549,33.353989 30.377256,39.368687 30.669371,41.086013 C28.313518,42.08666 25.719645,42.643777 23.001352,42.643777 L23.001352,42.643777 L23.001352,42.643777 L23.001352,42.643777 Z M3.356618,22.998648 C3.356618,22.790405 3.367437,22.584867 3.372846,22.379329 C3.721762,22.387442 13.426471,22.606502 23.539601,19.580222 C24.102193,20.680934 24.640442,21.803281 25.13271,22.920219 C24.873052,22.990534 24.616099,23.068963 24.359146,23.155506 C13.759158,26.57934 8.382078,36.115233 8.382078,36.115233 C8.382078,36.115233 8.390192,36.123346 8.390192,36.126051 C5.260775,32.645423 3.356618,28.045153 3.356618,22.998648 L3.356618,22.998648 L3.356618,22.998648 L3.356618,22.998648 Z M14.619274,5.238521 C14.881637,5.587395 18.514141,10.512199 21.914035,16.553942 C12.482507,19.060968 4.295173,18.960903 3.778562,18.95279 C5.052508,12.867776 9.139413,7.823976 14.619274,5.238521 L14.619274,5.238521 L14.619274,5.238521 L14.619274,5.238521 Z M18.295055,3.929567 C18.295055,3.932271 18.29235,3.934976 18.29235,3.934976 C18.29235,3.934976 18.268007,3.940385 18.232845,3.945793 C18.254483,3.940385 18.273417,3.93768 18.295055,3.929567 L18.295055,3.929567 L18.295055,3.929567 L18.295055,3.929567 Z M35.973423,8.262097 C35.924737,8.335117 33.128006,12.594626 25.711531,15.372097 C22.354913,9.203245 18.665608,4.302781 18.370788,3.91334 C19.855706,3.553648 21.405539,3.358928 23.001352,3.358928 C27.972717,3.358928 32.514024,5.214181 35.973423,8.262097 L35.973423,8.262097 L35.973423,8.262097 L35.973423,8.262097 Z M42.637973,22.803927 C42.353972,22.741725 35.705651,21.311071 28.957253,22.160268 C28.816605,21.824916 28.678662,21.48686 28.532604,21.148804 C28.124184,20.186019 27.683307,19.234053 27.226201,18.298313 C34.983477,15.131401 38.131828,10.579811 38.169695,10.525722 C40.923149,13.871127 42.591992,18.144159 42.637973,22.803927 L42.637973,22.803927 L42.637973,22.803927 L42.637973,22.803927 Z M45.53478,18.371333 C45.231846,16.894703 44.777445,15.437004 44.19051,14.046916 C43.617099,12.683873 42.900335,11.36951 42.069971,10.14169 C41.250426,8.924687 40.303757,7.778 39.265126,6.739491 C38.22379,5.698277 37.079673,4.754424 35.859822,3.932271 C34.631857,3.0993 33.31734,2.38803 31.954137,1.809277 C30.563885,1.225116 29.10872,0.770768 27.631916,0.470574 C26.117246,0.159563 24.559299,0 23.001352,0 C21.440701,0 19.882754,0.159563 18.368084,0.470574 C16.89128,0.770768 15.436115,1.225116 14.045863,1.809277 C12.68266,2.38803 11.368143,3.0993 10.137473,3.932271 C8.920327,4.754424 7.77621,5.698277 6.734874,6.739491 C5.696243,7.778 4.752278,8.924687 3.930029,10.14169 C3.099665,11.36951 2.382901,12.683873 1.80949,14.046916 C1.219851,15.437004 0.768154,16.894703 0.46522,18.371333 C0.156877,19.883121 0,21.440884 0,22.998648 C0,24.56182 0.156877,26.119584 0.46522,27.634076 C0.768154,29.110706 1.219851,30.565701 1.80949,31.953084 C2.382901,33.316127 3.099665,34.635899 3.930029,35.863719 C4.752278,37.080722 5.696243,38.222 6.734874,39.265918 C7.77621,40.304427 8.920327,41.245576 10.137473,42.070433 C11.368143,42.9007 12.68266,43.614675 14.045863,44.190723 C15.436115,44.780293 16.89128,45.229232 18.368084,45.529426 C19.882754,45.843142 21.440701,46 23.001352,46 C24.559299,46 26.117246,45.843142 27.631916,45.529426 C29.10872,45.229232 30.563885,44.780293 31.954137,44.190723 C33.31734,43.614675 34.631857,42.9007 35.859822,42.070433 C37.079673,41.245576 38.22379,40.304427 39.265126,39.265918 C40.303757,38.222 41.250426,37.080722 42.069971,35.863719 C42.900335,34.635899 43.617099,33.316127 44.19051,31.953084 C44.777445,30.565701 45.231846,29.110706 45.53478,27.634076 C45.843123,26.119584 46,24.56182 46,22.998648 C46,21.440884 45.843123,19.883121 45.53478,18.371333 L45.53478,18.371333 L45.53478,18.371333 L45.53478,18.371333 Z" id="Dribbble"></path>
                </g>
            </g>
        </g>
    </g>
</svg>