<?xml version="1.0" encoding="UTF-8" standalone="no"?>
<svg width="112px" height="99px" viewBox="0 0 112 99" version="1.1" xmlns="http://www.w3.org/2000/svg" xmlns:xlink="http://www.w3.org/1999/xlink">
    <!-- Generator: Sketch 40.3 (33839) - http://www.bohemiancoding.com/sketch -->
    <title>fingerheart</title>
    <desc>Created with Sketch.</desc>
    <defs></defs>
    <g id="Page-1" stroke="none" stroke-width="1" fill="none" fill-rule="evenodd">
        <g id="fingerheart" fill="#FF5252">
            <g id="Group">
                <polygon id="Shape" points="55.496 53.2379375 56.382439 54.465125 57.1213659 55.8305 57.8719024 57.6021875 58.6108293 59.0363125 59.5587317 60.6045 60.7142439 62.1699375 62.1347317 63.811 62.7404878 63.738125 62.6756098 62.7185625 62.0698537 61.28375 60.7142439 59.65025 59.6277073 57.805 58.8170732 56.2368125 58.1423415 54.465125 57.7332683 53.0344375 56.513561 51.811375 55.5670244 50.645375 54.888878 50.782875 54.9558049 51.8725625"></polygon>
                <polygon id="Shape" points="62.6107317 34.2849375 63.3537561 33.7363125 63.3537561 32.98625 61.731122 32.85425 60.8426341 33.8738125 60.3748293 35.443375 59.9630244 37.35325 59.9022439 41.3758125 61.1219512 43.6981875 61.8601951 46.7603125 62.5383415 48.604875 63.3537561 50.986375 64.8473171 53.0990625 66.1995122 54.874875 67.2122927 57.057 69.178439 59.30925 70.5989268 60.1211875 72.4967805 61.015625 74.5954146 62.03175 76.4283902 61.4906875 77.7805854 60.1211875 79.7467317 58.6953125 80.7595122 57.6709375 81.4383415 55.554125 81.2320976 54.7366875 80.6222439 55.1478125 79.6743415 56.64725 78.4587317 57.740375 77.102439 58.4918125 76.0206829 59.2356875 74.5312195 59.99125 73.3080976 59.511375 72.0200976 58.625875 70.0580488 56.64725 68.5002927 55.419375 67.2122927 53.44075 66.2643902 51.3968125 65.5896585 49.490375 65.5896585 47.6465 64.4355122 45.8748125 63.4869268 43.4644375 63.2847805 41.7175 62.6107317 40.4229375 62.4734634 38.1679375 62.6107317 35.8496875"></polygon>
                <polygon id="Shape" points="76.9651707 40.9633125 75.814439 38.7179375 74.3939512 35.512125 72.2263415 33.05775 70.0580488 31.076375 67.4834146 29.579 64.2333659 28.8255 60.3058537 29.5123125 56.7819512 30.735375 53.807122 32.30975 51.7726829 34.01475 50.3515122 37.4886875 50.016878 40.4229375 50.3515122 44.2344375 50.9634146 48.7355 51.5042927 49.9626875 51.9099512 51.1891875 52.182439 52.490625 52.4549268 54.3998125 52.9917073 56.3096875 53.7401951 57.6709375 55.0923902 60.1865 56.9233171 63.47 58.2072195 65.379875 60.1726829 67.28975 61.524878 68.578125 63.4910244 70.6220625 65.650439 71.7839375 67.079122 72.7354375 68.702439 73.96675 70.736878 74.85225 73.9179512 74.9216875 76.7637073 74.58 78.8623415 73.6938125 80.154439 71.7839375 80.4200976 70.96375 81.5018537 69.6059375 83.3348293 67.826 84.7519024 65.2334375 85.8418537 63.738125 86.4469268 62.096375 87.1257561 60.3246875 87.4644878 58.6953125 87.8039024 56.8541875 87.7390244 55.419375 87.4002927 54.9443125 86.7221463 55.8305 85.6315122 58.6953125 85.3658537 60.8774375 84.8249756 62.9248125 83.5369756 64.554875 82.2530732 66.396 81.0982439 67.9641875 80.0164878 69.8094375 78.7974634 71.718625 76.3600976 72.5319375 74.1235122 72.7354375 71.7496585 72.942375 70.0580488 71.853375 68.5651707 71.1665625 66.5389268 70.01225 64.7100488 68.7809375 63.6282927 67.3509375 61.524878 65.916125 60.2409756 63.8763125 58.679122 62.2345625 57.5973659 60.3246875 56.1741463 57.740375 55.0261463 55.350625 54.0085854 53.0344375 53.2600976 48.4666875 53.0586341 46.14225 52.7192195 44.039875 52.1120976 41.646 52.1120976 38.85475 52.9917073 36.674 54.1465366 34.764125 55.6332683 33.39875 58.8170732 32.7201875 61.1219512 31.8346875 64.306439 31.692375 67.0074146 31.901375 68.9039024 32.92575 71.0073171 34.2849375 72.2946341 35.308625 72.9003902 37.1476875 74.797561 40.2194375 76.2228293 43.2856875 76.7637073 45.9476875 76.4283902 47.6465 75.6819512 49.34875 75.1369756 50.782875 73.7847805 50.8481875 73.3770732 49.693875 72.3595122 48.3291875 70.2642927 45.9476875 69.0452683 43.555875 66.8093659 40.7605 65.9297561 38.3136875 64.9763902 37.7595625 64.3665366 38.3728125 64.6376585 39.8784375 65.4564878 41.9876875 67.4185366 45.8748125 69.2474146 48.25975 72.0200976 50.7175625 73.0376585 52.424625 75.3466341 52.89625 77.2438049 50.238375 77.6433171 47.438875 77.9827317 44.6469375"></polygon>
                <polygon id="Shape" points="69.3799024 53.376125 71.3419512 54.7366875 72.0200976 56.0250625 73.8530732 56.923625 75.7468293 57.123 76.3600976 55.8305 75.5446829 54.8068125 73.3770732 54.465125 72.0931707 53.1685 70.196 51.3968125 68.7714146 49.62925 67.8262439 48.0528125 67.4185366 48.6701875 67.8262439 50.645375 68.5002927 52.2135625"></polygon>
                <path d="M66.4057561,36.806 L67.8262439,37.830375 L68.8438049,38.850625 L69.655122,40.0778125 L70.3981463,41.4425 L71.3426341,42.6655625 L72.2912195,44.16775 L73.2363902,45.6039375 L73.7082927,47.0284375 L74.5879024,46.8331875 L74.656878,45.3261875 L74.2450732,43.8975625 L73.7765854,42.873875 L72.828,41.1021875 L71.8828293,39.6653125 L70.8700488,37.6234375 L69.3758049,36.1906875 L68.1574634,35.1016875 L67.2771707,34.010625 L66.0581463,33.6655 L65.0453659,34.551 C64.7667317,35.12575 64.5283902,35.4756875 64.2299512,35.98375 L64.6383415,36.6705625 L66.4057561,36.806 L66.4057561,36.806 Z" id="Shape"></path>
                <path d="M61.255122,94.2156875 L59.0868293,93.0538125 L56.6515122,92.03425 L53.4683902,89.8514375 L50.2852683,87.4699375 L48.1839024,85.90175 L46.0183415,83.8536875 L44.4599024,81.6055625 L41.9556098,77.5823125 L40.6696585,75.9364375 L39.040878,72.0555 L37.959122,68.849 L36.6690732,65.846 L36.1261463,62.6401875 L35.5852683,59.576 L35.718439,55.488125 L35.9199024,51.2545 L36.3296585,47.304125 L36.9374634,44.5754375 L37.0685854,42.6655625 L37.9509268,40.282 L38.5587317,38.512375 L39.3051707,36.8726875 L40.9298537,36.19 L41.2726829,36.7365625 L41.2016585,38.7825625 L40.8629268,40.1396875 L39.2341463,43.34825 L39.5086829,46.4839375 L39.0326829,50.230125 L39.4383415,54.253375 L39.9792195,57.187625 L41.1279024,60.8004375 L42.0102439,63.8034375 L43.6390244,67.208625 L45.3285854,70.0693125 L47.0905366,72.8000625 L48.6482927,75.4579375 L51.2236098,78.7978125 L54.3357073,81.7279375 L57.1794146,84.3170625 L58.4653659,85.820625 L61.7195122,86.909625 L64.0202927,87.7305 L66.2527805,88.4785 L68.6266341,89.7098125 L70.1440976,89.9655625 C71.2019512,89.2216875 72.2878049,88.43725 73.4023415,87.616375 L70.5886829,87.4616875 L67.8801951,86.9089375 L65.1034146,86.5720625 L61.8492683,84.6580625 L58.9386341,83.507875 L57.1097561,82.2765625 L55.2836098,80.6430625 L53.3195122,78.318625 L51.4933659,76.412875 L49.1195122,73.48275 L47.7693659,71.22775 L46.6152195,68.842125 L45.1278049,66.04675 L43.503122,61.210875 L42.4821463,57.4605625 L41.6059512,51.66975 L41.1961951,47.370125 L41.9412683,41.916875 L42.3469268,38.5763125 L42.6153171,35.638625 L43.7011707,32.8466875 L45.6645854,29.0956875 L46.8836098,27.2525 L49.3237073,26.299625 L53.5216585,23.91675 L58.8703415,22.4173125 L62.7978537,21.6651875 L67.6090732,22.7541875 L71.3310244,23.711875 L74.2416585,25.3433125 L76.6797073,27.1211875 L79.6620488,31.34725 L81.6964878,33.462 L83.7275122,37.35325 L85.0790244,42.12175 L85.4908293,47.5165625 L84.8133659,51.2551875 L83.3232195,54.8714375 L82.1690732,58.8300625 L80.1387317,61.82825 L79.258439,64.961875 L77.2970732,66.2585 L74.656878,66.5995 L71.335122,65.3723125 L68.5583415,63.6659375 L66.7970732,61.689375 L65.444878,59.3690625 L63.680878,56.9195 L62.2603902,54.456875 L60.9723902,52.547 L59.4146341,49.9626875 L58.808878,47.6375625 L58.2639024,44.917125 L57.7250732,42.321125 L57.3856585,40.007 L57.7960976,38.0276875 L58.1348293,36.3171875 L57.997561,35.162875 L56.5101463,36.8025625 L55.6257561,38.982625 L56.0997073,41.5710625 L56.1707317,45.0456875 L56.7785366,48.0528125 L57.7257561,50.2308125 L59.1523902,53.2296875 L61.3159024,56.2326875 L63.0758049,59.301 L64.7708293,61.755375 L66.8052683,64.7535625 L68.8397073,66.737 L71.6806829,67.485 L73.0369756,68.374625 L75.7461463,68.374625 L77.2397073,67.3509375 L79.4721951,65.916125 L81.1638049,63.5305 L82.4559024,61.1455625 L83.9453659,58.4918125 L84.6235122,56.2368125 L85.7742439,53.2379375 L87.1954146,51.3280625 L87.332,49.8980625 L86.9891707,45.3220625 L86.650439,42.19325 L85.9074146,39.1290625 L84.9588293,36.608 L83.2672195,33.3994375 L80.9623415,29.513 L79.4039024,27.6739375 L77.579122,25.2841875 L75.609561,23.516625 L73.1066341,22.015125 L69.5827317,20.44625 L66.2609756,19.493375 L63.2820488,19.493375 L60.3707317,19.562125 L56.9192195,20.2406875 L54.2066341,20.791375 L51.3622439,22.6304375 L47.6382439,24.611125 L45.882439,25.8383125 L44.4599024,27.473875 L42.831122,30.0664375 L41.5451707,31.84225 L40.2558049,33.270875 L38.6973659,35.85725 L37.3472195,36.8850625 L37.2058537,38.11225 L35.5811707,40.2276875 L34.832,42.40775 L34.4283902,45.1281875 L34.0227317,47.036 L34.0896585,50.10775 L33.2742439,52.7003125 L33.1390244,55.6991875 L33.0809756,57.1945 L33.3493659,60.405125 L33.4866341,62.4449375 L34.4331707,64.6188125 L35.3134634,67.63075 L36.5324878,71.234625 L36.8719024,73.7584375 L38.5669268,77.0254375 L41.0712195,80.5811875 L42.5627317,82.5605 L43.4389268,84.2593125 L46.8296585,87.124125 L49.6733659,89.7208125 L52.789561,92.101625 L56.4466341,94.2844375 L59.5587317,95.035875 L61.2708293,95.8326875 C61.8636098,95.4669375 62.5021463,95.073 63.1720976,94.645375 L61.255122,94.2156875 L61.255122,94.2156875 Z" id="Shape"></path>
                <path d="M65.9297561,91.14325 L62.336878,89.9889375 L59.9029268,88.834625 L57.7332683,87.737375 L55.4966829,86.23725 L53.5353171,84.7378125 L51.165561,82.0235625 L48.7917073,79.42275 L46.6971707,76.6349375 L45.2056585,74.042375 L43.1712195,71.108125 L41.5465366,67.3578125 L40.9353171,65.3063125 L39.9177561,64.004875 L39.5783415,61.9650625 L38.4965854,60.401 L38.6318049,58.4216875 L37.9557073,58.6251875 L37.6162927,60.8031875 L38.3627317,61.961625 L38.3627317,64.079125 L39.1078049,65.51325 L39.8562927,67.63075 L40.0577561,68.102375 L41.0042927,70.4873125 L42.4268293,73.283375 L43.8520976,76.286375 L45.8865366,78.6713125 L47.8506341,81.4639375 L49.4773659,83.4466875 L51.1723902,85.762875 L53.5421463,87.5345625 L56.588,88.96525 L58.7515122,90.2653125 L61.5282927,91.432 L64.4430244,92.785 L65.5090732,93.15075 C66.2193171,92.68325 66.9541463,92.1916875 67.713561,91.675375 L65.9297561,91.14325 L65.9297561,91.14325 Z" id="Shape"></path>
                <path d="M3.69258537,29.7213125 L4.30039024,28.9004375 L5.78780488,27.1940625 L7.41658537,25.0806875 L9.58214634,23.104125 L10.7362927,21.8728125 L12.086439,20.442125 L15.4109268,17.307125 L17.9862439,15.6028125 L21.5722927,12.93875 L24.4870244,10.7628125 L31.192,7.420875 L34.8449756,5.3741875 L37.2850732,4.4886875 L39.6527805,3.334375 L41.7821463,2.24125 C40.7160976,1.8816875 39.6404878,1.574375 38.5546341,1.3000625 L37.352,1.6946875 L36.6697561,1.2835625 L36.6479024,0.847 C34.151122,0.3430625 31.630439,0.1010625 29.1254634,0.077 L26.8526829,0.804375 L23.4011707,2.51075 L21.4336585,4.079625 L19.5364878,4.8943125 L17.1667317,6.3311875 L15.1343415,7.4875625 L13.9132683,9.464125 L11.34,11.4455 L8.15278049,13.8331875 L6.52809756,16.7591875 L6.39082927,18.195375 L5.03453659,20.10525 L2.79795122,20.994875 L0.999804878,21.4905625 C0.930829268,21.7930625 0.897365854,22.13475 0.832487805,22.4475625 L0.832487805,23.5791875 L0.620097561,23.662375 C0.474634146,24.5155625 0.269073171,25.3103125 0.174146341,26.2123125 L0.174146341,26.2515 L1.37678049,24.806375 L3.67960976,22.9631875 L5.98039024,20.37475 L7.13112195,19.834375 L8.48536585,17.3738125 L11.1276098,14.9235625 L14.448,12.326875 L18.0340488,9.2613125 L21.0150244,7.4875625 L22.5734634,5.9228125 L24.3996098,5.3068125 L27.5158049,3.608 L30.9673171,2.1065 L34.8292683,0.741125 L35.6446829,1.225125 L35.5115122,2.58225 L33.479122,3.738625 L30.9038049,4.3505 L29.4812683,5.6491875 L26.9756098,6.6721875 L24.6727805,8.3785625 L22.0974634,8.8515625 L19.861561,11.3691875 L15.8650732,14.0999375 L14.7163902,15.4598125 L13.2938537,15.934875 L11.806439,17.7780625 L10.3839024,18.80175 L8.8964878,20.7769375 L8.69502439,22.1381875 L6.52536585,23.0319375 L4.63229268,25.07175 L3.3422439,25.892625 L3.20497561,27.2476875 L1.64585366,28.006 L0.0293658537,28.813125 C-0.0191219512,30.0746875 -0.00682926829,31.3259375 0.0594146341,32.569625 L0.154341463,32.5001875 L1.98526829,29.979125 L3.69258537,29.7213125 L3.69258537,29.7213125 Z" id="Shape"></path>
                <path d="M66.0622439,4.08375 L69.7234146,4.4254375 L73.6509268,5.7866875 L79.7467317,8.6494375 L83.5369756,11.581625 L86.3137561,13.696375 L89.357561,16.218125 L92.6110244,18.8106875 L94.5730732,21.3241875 L96.7447805,23.920875 L98.4398049,26.1009375 L99.792,28.0108125 L101.823024,30.5284375 L104.058927,33.5946875 L105.89122,36.051125 L107.582829,39.6611875 L108.866732,41.5064375 L109.637756,43.2334375 C110.061854,41.8474375 110.421073,40.4435625 110.715415,39.029375 L110.699707,38.9785 L109.008098,36.3130625 L106.093366,33.18425 L103.457951,29.293 L100.946829,25.7475625 L98.8481951,22.8848125 L95.667122,20.0220625 L93.903122,16.957875 L91.2595122,14.7778125 L88.078439,11.845625 L83.7432195,9.3259375 L79.9481951,6.52575 L76.2269268,4.2783125 L71.754439,2.638625 L70.2117073,2.102375 C68.580878,2.6310625 67.0033171,3.262875 65.4605854,3.97925 L66.0622439,4.08375 L66.0622439,4.08375 Z" id="Shape"></path>
                <path d="M31.9971707,81.8049375 L30.4394146,79.220625 L28.8850732,75.8759375 L28.0717073,72.5319375 L27.393561,70.21575 L27.188,67.21275 L26.7823415,64.5514375 L26.6450732,60.5281875 L26.7160976,59.434375 L26.5146341,58.617625 L25.4970732,59.6413125 L25.5680976,60.8685 L25.3645854,63.254125 L25.4349268,65.5744375 L25.4349268,67.8253125 L25.9075122,71.5715 L26.3152195,73.684875 L26.7912195,77.163625 L27.6011707,78.7318125 L28.0812683,79.45575 C29.68,80.8575625 31.2766829,82.1940625 32.8549268,83.47075 L31.9971707,81.8049375 L31.9971707,81.8049375 Z" id="Shape"></path>
                <path d="M6.26380488,13.1498125 L9.71531707,10.22175 L12.2237073,8.107 L14.9970732,5.517875 L16.6920976,3.876125 L17.0315122,2.7176875 L17.9780488,2.85175 L20.7548293,1.287 L21.9158049,0.724625 C18.2785366,1.4581875 14.8516098,2.809125 11.8221463,4.8571875 L11.3440976,6.127 L9.7897561,8.1063125 L6.95014634,9.2558125 C6.93990244,9.2640625 6.93580488,9.2764375 6.92829268,9.2846875 L5.85882927,11.1698125 L4.94029268,11.84425 C4.36731707,12.7304375 3.8742439,13.7115 3.39004878,14.7049375 L4.30039024,15.1298125 L6.26380488,13.1498125 L6.26380488,13.1498125 Z" id="Shape"></path>
                <path d="M96.4060488,64.00625 L95.6630244,66.46475 L95.0176585,68.046 C95.9300488,67.001 96.8253659,65.9333125 97.6899512,64.8443125 L97.6899512,64.8278125 L98.2390244,61.967125 L98.3039024,59.8461875 L97.9644878,57.8056875 L97.7623415,55.3513125 L97.6257561,52.8323125 L97.2863415,51.5315625 L96.5399024,51.462125 L96.2694634,53.09975 L96.5399024,55.21725 L96.6040976,58.147375 L96.5399024,61.28375 L96.4060488,64.00625 L96.4060488,64.00625 Z" id="Shape"></path>
                <path d="M60.1726829,7.35075 L64.0967805,7.832 L69.5861463,9.329375 L73.4494634,10.8288125 L76.6298537,12.3220625 L80.5614634,14.4354375 L86.1122927,18.393375 L88.5496585,20.5060625 L91.597561,23.3688125 L93.3574634,25.48425 L95.1863415,27.522 L97.4222439,31.277125 L99.8602927,34.621125 L101.413951,37.4130625 L102.971707,39.4576875 L104.123122,42.3919375 L105.608488,45.7318125 L106.762634,48.4584375 L106.762634,50.5759375 C107.485171,49.05175 108.135317,47.507625 108.711707,45.93875 L107.912683,44.297 L106.693659,41.570375 L104.323902,38.3618125 L102.628878,35.7754375 L101.071122,32.7745 L99.0366829,30.0499375 L96.8082927,27.8760625 L95.1856585,23.923625 L92.8807805,21.8081875 L90.515122,19.6955 L88.3475122,17.17375 L85.6342439,15.3305625 L82.7925854,13.286625 L78.5953171,11.11 L75.6122927,8.9299375 L72.1607805,7.56525 L69.1818537,7.02075 L65.1853659,5.726875 L62.5854634,5.4319375 C61.5515122,6.012875 60.5510244,6.633 59.5826341,7.2909375 L60.1726829,7.35075 L60.1726829,7.35075 Z" id="Shape"></path>
                <path d="M45.6085854,11.92675 L41.4816585,12.942875 L40.1916098,14.5866875 L38.2281951,16.3563125 L35.1160976,18.132125 L32.8795122,19.152375 L30.4394146,20.3795625 L29.3617561,21.9443125 L28.4145366,23.65 L27.3969756,25.4890625 L25.2983415,27.732375 L23.8710244,29.7818125 L20.9610732,32.78275 L19.2674146,34.9628125 L17.4392195,36.2566875 L14.8639024,37.9630625 L13.5738537,39.461125 L11.7470244,41.1675 L10.5942439,43.4836875 L8.83639024,46.140875 L7.0102439,48.6646875 L5.38146341,51.3926875 L5.28653659,51.497875 C5.7044878,52.331125 6.15453659,53.152 6.61004878,53.977 L7.68770732,51.8065625 L9.10682927,49.34875 L10.7356098,45.9476875 L12.6327805,43.0155 L14.8686829,40.148625 L16.3601951,38.1088125 L17.6454634,37.158 L18.3925854,37.426125 L18.5257561,38.5886875 L17.2363902,40.019375 L16.0877073,41.6549375 L15.2053659,43.23 L14.1905366,45.0608125 L12.9756098,47.444375 L11.3468293,50.5209375 L10.0567805,52.556625 L8.50312195,54.263 L7.63921951,55.7748125 C8.06878049,56.4980625 8.49902439,57.2213125 8.94907317,57.92875 L9.1102439,57.4695 L11.4110244,53.994875 L12.6320976,51.4710625 L13.8470244,49.35425 L15.6069268,47.1068125 L16.9632195,46.765125 L17.9097561,47.1068125 L17.7724878,47.927 L16.7549268,49.1500625 L15.6731707,50.6460625 L15.0612683,51.8120625 L14.1809756,53.376125 L12.8246829,55.0790625 L12.758439,56.64725 L12.0140488,57.8056875 L10.9322927,60.121875 L10.6338537,60.4305625 C10.9240976,60.8458125 11.2047805,61.2514375 11.5018537,61.661875 L12.3534634,60.73925 L13.4372683,60.05725 L14.3838049,57.935625 L15.0619512,56.2368125 L15.7400976,53.989375 L16.4872195,51.9413125 L18.3843902,49.0765 L20.0090732,47.2360625 L21.9062439,45.3261875 L22.5140488,43.5565625 L22.5850732,41.85225 L24.3470244,39.12975 L25.6971707,37.016375 L26.9161951,35.31 L28.2021463,32.987625 L29.8971707,31.07775 L32.5387317,28.2858125 L35.1748293,26.2398125 L36.8705366,24.80775 L38.2971707,23.9215625 L39.5120976,22.694375 L42.8966829,19.963625 L45.266439,18.3321875 L47.4360976,17.1716875 L49.6016585,16.2820625 L52.8510244,15.6035 L55.356,14.3089375 L58.399122,13.550625 L60.7729756,13.48325 L65.1730732,13.14225 L67.6794146,13.6214375 L68.7611707,13.6214375 L70.8645854,14.304125 L73.0280976,14.777125 L75.6723902,15.73 L78.4491707,17.2294375 L80.5478049,19.00525 L82.9817561,20.6408125 L84.8147317,22.5506875 L86.5746341,23.986875 L88.5400976,25.342625 L90.8449756,28.4191875 L92.604878,30.52775 L93.4851707,32.305625 L94.9097561,34.2808125 L96.1977561,36.801875 L97.0780488,38.1005625 L98.6358049,40.0104375 L99.5154146,41.1015 L99.9197073,43.143375 L100.666146,44.16775 L101.683707,44.8463125 L101.954146,47.23125 L102.156293,48.72725 L103.512585,51.6690625 L103.512585,54.330375 L103.774829,56.1350625 C104.259024,55.334125 104.723415,54.517375 105.171415,53.6965 L104.526049,48.9383125 L103.847902,46.8936875 L103.104878,44.77825 L101.885854,42.2571875 L100.8,39.3270625 L99.9886829,38.099875 L98.4377561,35.7836875 L96.5412683,34.0140625 L95.5237073,31.4215 L93.4291707,29.579 L92.072878,27.3356875 L90.3778537,25.1466875 L87.5320976,22.62975 L85.8404878,21.2685 L83.132,18.814125 L81.4369756,17.65225 L78.9299512,15.813875 L78.1220488,14.6575 L75.6846829,13.704625 L73.3798049,12.8899375 L71.0790244,12.414875 L68.096,11.1835625 L66.4692683,10.98075 L63.1509268,11.116875 L59.425561,11.935 L55.0958049,12.33925 L50.5570732,13.84075 L47.1724878,15.07 L42.0259512,17.656375 L40.0577561,19.2314375 L38.5040976,20.3204375 L36.9463415,22.0941875 L34.0357073,24.069375 L31.6639024,26.39175 L29.7708293,28.4398125 L27.6701463,31.16025 L25.1651707,33.4785 L24.4166829,34.915375 L22.5195122,37.8475625 L21.1693659,41.734 L19.6116098,45.3426875 L17.8537561,46.1594375 L16.5637073,45.8239375 L17.3750244,43.9140625 L18.1173659,41.9395625 L19.0639024,40.0943125 L20.0814634,38.1170625 L20.5533659,36.6196875 L21.1652683,35.1223125 L23.1273171,33.141625 L23.8717073,31.44075 L26.1082927,29.2545 L28.5463415,26.4584375 L30.1047805,25.1604375 L32.544878,23.1226875 L34.0322927,21.483 L36.5365854,20.117625 L38.4337561,18.4779375 L40.8677073,16.3645625 L44.1874146,14.32475 L46.6254634,13.5664375 L49.065561,12.75175 L51.640878,11.9405 L54.0789268,11.2536875 L56.9936585,10.8453125 L58.6832195,10.8453125 L60.7176585,10.571 L61.5972683,9.618125 L60.3782439,8.801375 L57.6212683,8.801375 C57.017561,9.2805625 56.382439,9.7301875 55.8149268,10.2416875 C55.3566829,9.82575 54.8397073,9.4675625 54.3555122,9.0811875 L53.1282927,9.2131875 L49.130439,10.781375 L45.6085854,11.92675 L45.6085854,11.92675 Z" id="Shape"></path>
                <path d="M94.5730732,40.0778125 L94.2336585,37.6234375 L93.7651707,36.6705625 L92.3364878,34.4905 L90.9842927,31.21525 L89.1554146,28.6935 L87.7349268,27.4663125 L86.8505366,26.99125 L86.5800976,27.812125 L88.275122,30.0595625 L89.7604878,32.6459375 L90.8463415,35.030875 L92.5379512,38.8513125 L93.0836098,41.575875 L93.5555122,46.5540625 L93.1512195,49.691125 L92.8124878,53.986625 L93.1512195,59.0335625 L92.2067317,62.84575 L89.8369756,70.5588125 L88.751122,72.939625 L86.2481951,75.8003125 L84.0805854,77.983125 L82.1192195,79.8194375 L79.3417561,81.59525 L76.431122,82.960625 L73.0444878,82.88775 L69.7910244,82.2738125 L67.1515122,82.0703125 L63.0860488,80.575 L60.442439,78.604625 L58.5452683,76.7635 L56.5169756,73.833375 L55.1606829,71.647125 L52.6598049,68.9280625 L50.829561,66.1285625 L49.6767805,62.0365625 L48.3915122,58.1521875 L47.8506341,53.7838125 L47.7837073,49.5584375 L47.5801951,46.49425 L47.3118049,43.9704375 L47.0434146,41.85775 L47.3828293,38.110875 L48.1920976,35.5183125 L49.4821463,32.5909375 L52.396878,29.65325 L55.448878,28.224625 L58.7610732,27.267625 L62.3498537,26.31475 L66.1400976,26.8613125 L69.7329756,28.0218125 L73.256878,30.26925 L75.5576585,32.7903125 L77.1154146,34.9036875 L78.9442927,38.449125 L79.9570732,42.200125 L80.5703415,45.062875 L80.1626341,48.33675 L79.8887805,51.266875 L78.6738537,52.97325 L77.7245854,54.407375 L78.1971707,55.5616875 L79.9563902,54.1358125 L81.5107317,52.6356875 L82.124,49.0881875 L82.664878,46.0205625 L82.8663415,43.7023125 L82.3978537,41.52225 L81.7197073,39.199875 L81.041561,37.0239375 L79.2133659,34.2931875 L77.6549268,32.1165625 L76.4406829,30.34075 L73.8653659,28.502375 L72.2386341,27.0655 L70.4746341,25.91325 L67.7012683,25.0215625 L64.6533659,24.1395 L60.5885854,24.206875 L57.6096585,24.751375 L53.4096585,26.8668125 L51.1771707,28.0273125 L50.297561,29.453875 L48.263122,30.89075 L46.8426341,32.9388125 L45.7588293,34.9160625 L45.1469268,37.3704375 L44.9454634,39.8248125 L44.9454634,42.7549375 L45.1469268,45.6218125 L45.0158049,47.8713125 L44.8116098,50.325 L44.948878,53.868375 L45.0840976,54.957375 L45.6919024,58.6471875 L46.8460488,62.32875 L48.6018537,66.2784375 L49.6856585,68.6681875 L52.2609756,72.276875 L54.5617561,74.7395 L56.3237073,76.844625 L58.2878049,79.5100625 L60.7258537,81.82625 L62.8893659,83.0534375 L66.9541463,84.484125 L70.1345366,85.2438125 L74.470439,85.105625 L76.5690732,84.690375 L77.5989268,84.4504375 C81.7401951,81.1834375 86.0672195,77.4283125 90.2050732,73.2551875 L91.540878,71.2600625 L92.6233171,68.602875 L93.5029268,65.4665 L94.1810732,62.7433125 L94.8633171,58.9235625 L94.5198049,55.7865 L95.2669268,51.495125 L95.0647805,48.8338125 L95.8801951,45.4265625 L94.8633171,43.250625 L94.5730732,40.0778125 L94.5730732,40.0778125 Z" id="Shape"></path>
                <path d="M3.62156098,18.464875 L4.16243902,17.5786875 L3.2862439,16.07925 L2.63609756,16.2930625 C2.24,17.2459375 1.91765854,18.277875 1.60282927,19.3221875 L3.62156098,18.464875 L3.62156098,18.464875 Z" id="Shape"></path>
                <path d="M3.89063415,34.967625 L8.02370732,30.8776875 L9.85053659,28.901125 L13.4427317,25.009875 L16.2160976,22.6936875 L18.862439,20.029625 L21.9076098,17.8495625 L25.2942439,16.8334375 L27.0541463,15.8049375 L29.2197073,14.1040625 L32.2717073,11.5809375 L36.334439,9.9433125 L39.7900488,7.832 L44.3253659,5.3068125 L47.1513171,4.45775 C46.0572683,3.917375 44.948878,3.4051875 43.7988293,2.960375 L43.6513171,2.9926875 L40.8076098,4.833125 L38.099122,6.402 L33.2223415,8.6494375 L30.4435122,10.42525 L26.6532683,12.4691875 L24.5539512,13.899875 L21.7102439,15.1311875 L18.7292683,17.5835 L16.2912195,18.885625 L14.0546341,21.1371875 L12.496878,23.5874375 L10.0588293,25.430625 L8.16165854,27.20025 L6.1982439,29.3129375 L4.30517073,31.9055 L1.72985366,33.402875 L0.245170732,34.780625 C0.364682927,35.8964375 0.517658537,37.0033125 0.719804878,38.1005625 L0.78195122,38.039375 L3.89063415,34.967625 L3.89063415,34.967625 Z" id="Shape"></path>
                <path d="M101.818244,53.8511875 L101.410537,51.6773125 L100.332878,49.556375 L99.9941463,47.5811875 L99.044878,45.05325 L98.439122,43.2224375 L97.4905366,40.6319375 L96.7475122,40.426375 L96.7475122,42.466875 L97.0145366,45.1955625 L97.4905366,46.6296875 L98.1003902,48.7348125 L99.1862439,51.60375 L99.9292683,53.5789375 L100.199707,55.627 L100.062439,58.2841875 L99.9620488,61.884625 C100.753561,60.7915 101.524585,59.6908125 102.262829,58.5688125 L101.95961,56.375 L101.818244,53.8511875 L101.818244,53.8511875 Z" id="Shape"></path>
                <path d="M22.3132683,19.221125 L20.8217561,21.4685625 L17.5723902,24.1319375 L16.2160976,24.9431875 L15.4737561,26.923875 L13.644878,28.0823125 L11.4793171,29.6470625 L10.7362927,31.6930625 L9.38,31.90275 L7.55317073,33.812625 L6.33209756,36.135 L4.23687805,37.835875 L2.54185366,39.8798125 L1.46009756,41.1785 L1.40204878,41.229375 C1.6342439,42.1293125 1.9142439,43.0155 2.19902439,43.901 L3.76292683,42.062625 L5.4524878,39.3415 L6.944,37.563625 L9.85463415,34.2925 L12.8356098,31.42975 L16.287122,28.430875 L18.3905366,26.2466875 L20.5540488,23.5241875 L22.3139512,22.0226875 L24.0738537,19.90725 L24.8182439,18.3425 L24.1441951,18.1355625 L22.3132683,19.221125 L22.3132683,19.221125 Z" id="Shape"></path>
                <path d="M87.0936585,0.32725 L87.6017561,0.8085 L89.2967805,1.2876875 L92.8814634,3.05525 L94.4433171,3.53925 L97.4222439,5.6485 L100.675707,7.3514375 L102.710146,9.194625 L106.294829,11.7830625 L107.005073,12.4114375 C102.480683,5.049 95.1501463,1.2753125 87.0936585,0.32725 L87.0936585,0.32725 Z" id="Shape"></path>
                <path d="M83.5369756,2.78575 L85.7045854,2.9926875 L88.2116098,5.445 L89.9715122,5.9269375 L93.0194146,8.174375 L94.508878,8.650125 L97.4236098,10.696125 L100.806146,12.9435625 L103.720878,15.2659375 L107.511805,18.470375 L108.597659,20.4510625 L110.632098,22.0199375 L110.729756,22.10725 C110.370537,20.39675 109.902049,18.799 109.345463,17.304375 L106.366537,13.905375 L103.79122,12.3365 L101.692585,11.6538125 L101.353171,10.43075 L97.4905366,7.976375 L95.1166829,6.611 L91.8714146,4.4983125 L86.7200976,2.2474375 L84.5524878,1.15225 L82.7966829,1.02025 L81.3720976,1.3591875 L79.696878,0.174625 C77.8154146,0.3293125 75.9387317,0.655875 74.0818537,1.0725 L78.8001951,3.344 L81.2341463,5.5240625 L85.8398049,7.976375 L88.48,10.0890625 L90.9822439,12.2656875 L93.763122,14.1109375 L97.2829268,15.266625 L100.128683,17.1056875 L103.785756,20.2393125 L106.155512,22.4901875 L110.353463,27.533 L111.620293,29.489625 C111.59639,28.4026875 111.551317,27.3178125 111.438634,26.2185 C111.397659,25.8245625 111.293171,25.49525 111.244683,25.1075 L109.876098,23.585375 L108.85922,21.7463125 L106.425951,19.8405625 L104.189366,17.9306875 L101.549854,15.7444375 L99.240878,13.497 L97.4809756,12.8871875 L92.8753171,10.50225 L91.5265366,10.3640625 L89.8957073,8.388875 L86.6422439,6.4081875 L84.9472195,5.4505 L83.3239024,4.434375 L81.4274146,3.273875 L81.023122,2.1828125 L81.6616585,1.9751875 L83.5369756,2.78575 L83.5369756,2.78575 Z" id="Shape"></path>
                <path d="M105.273854,24.6681875 L102.973073,22.5555 L101.213854,20.645625 L99.2436098,19.3510625 L97.3505366,17.370375 L95.2519024,16.5515625 L95.4533659,17.4411875 L97.3505366,19.7594375 L99.2436098,21.602625 L101.00761,23.5125 L102.83239,25.1439375 L105.202146,27.812125 L106.759902,29.722 L108.451512,31.835375 L110.752293,34.8321875 L111.264488,35.6626875 C111.401756,34.610125 111.499415,33.5534375 111.555415,32.484375 L109.331122,29.4408125 L105.273854,24.6681875 L105.273854,24.6681875 Z" id="Shape"></path>
                <path d="M19.1970732,66.87175 L18.992878,64.827125 L18.452,64.486125 L17.9821463,67.1433125 L17.7861463,69.370125 C18.2580488,69.8905625 18.7285854,70.40275 19.2052683,70.906 L19.1308293,70.076875 L19.1970732,66.87175 L19.1970732,66.87175 Z" id="Shape"></path>
                <path d="M43.4430244,8.856375 L39.9211707,10.4960625 L36.7380488,12.203125 L34.2337561,12.879625 L32.7463415,14.7915625 L29.4286829,16.1514375 L26.2414634,19.7635625 L24.2780488,22.627 L22.3146341,23.8541875 L19.3336585,28.2184375 L16.6272195,30.9450625 L12.1588293,34.4238125 L10.2616585,37.4226875 L8.02507317,39.2638125 L6.53356098,42.46825 L4.43697561,45.054625 L3.14146341,46.5691875 C3.46039024,47.3941875 3.7875122,48.2150625 4.14673171,49.027 L5.10965854,47.719375 L7.75190244,43.3565 L9.17307317,41.3758125 L10.5293659,40.3514375 L14.2533659,36.4038125 L16.9618537,33.39875 L20.1449756,30.119375 L22.2442927,27.8114375 L26.9148293,22.7583125 L28.812,20.1004375 L30.640878,19.080875 L32.806439,17.307125 L35.7853659,15.39725 L39.172,13.35125 L41.2043902,12.05325 L46.0832195,10.2183125 L49.8734634,8.2369375 L52.9316098,7.924125 C52.0677073,7.2964375 51.1553171,6.7175625 50.2292683,6.1565625 L47.9100488,7.14175 L45.2036098,7.4160625 L43.4430244,8.856375 L43.4430244,8.856375 Z" id="Shape"></path>
                <path d="M84.3482927,25.6293125 L81.7729756,23.309 L79.6743415,20.99075 L77.0990244,19.69275 L74.1883902,17.9856875 L70.5955122,16.281375 L66.7369756,14.8493125 L61.5173659,14.92425 L57.997561,15.6743125 L55.084878,16.42575 L51.1573659,17.9251875 L47.7017561,19.14825 L45.126439,21.0533125 L40.9926829,24.6681875 L39.975122,26.239125 L38.5539512,28.21775 L37.1976585,31.147875 L36.184878,33.669625 L34.2289756,35.784375 L32.3359024,38.1046875 L31.7280976,39.8784375 L30.4387317,41.8556875 L30.4387317,43.0161875 L30.035122,44.65175 L29.1527805,46.833875 L28.2731707,48.873 L28.3441951,51.327375 L27.5998049,53.03375 L27.4686829,54.806125 L28.0764878,56.9270625 L28.6829268,58.353625 L29.0885854,60.19475 L29.0182439,61.901125 L29.2907317,63.6728125 L29.5632195,65.916125 L29.9026341,68.1030625 L30.5063415,70.3505 L30.9823415,72.056875 L32.135122,74.987 L33.0154146,77.9246875 L35.3182439,80.9840625 L36.670439,83.6460625 L38.228878,85.421875 L40.9353171,88.6325 L43.0687805,91.0861875 C45.3292683,92.643375 47.3958049,93.988125 49.1823415,95.1053125 L49.5381463,94.63025 L50.8275122,95.0365625 L52.3859512,96.199125 L53.6719024,97.2186875 L55.9788293,98.173625 L56.6890732,98.539375 C57.1896585,98.263 57.894439,97.8566875 58.7781463,97.33625 L56.653561,96.7346875 L54.6894634,95.51575 L52.1141463,93.6711875 L48.9979512,93.402375 L47.8472195,92.4433125 L46.0873171,90.7445 L43.7196098,88.7610625 L42.0245854,86.8511875 L39.4492683,83.71825 L37.8245854,81.332625 L36.9442927,79.495625 L34.9139512,76.9759375 L33.8321951,74.4528125 L33.2243902,72.2706875 L32.4759024,70.0266875 L31.9350244,66.9549375 L31.1196098,61.980875 L30.4414634,58.9125625 L30.0378537,55.6414375 L30.0378537,53.048875 L31.256878,47.0504375 L31.8646829,43.64525 L33.7577561,39.281 L35.8611707,36.826625 L37.4858537,34.2381875 L39.3830244,30.892125 L42.1563902,27.3508125 L43.9183415,24.8881875 L47.1718049,22.848375 L48.9317073,20.735 L52.1148293,19.5745 L54.8916098,18.6828125 L58.4120976,18.0750625 L61.7338537,17.3270625 L65.1163902,17.1180625 L67.554439,17.593125 L70.4001951,18.4793125 L72.3656585,19.162 L74.4690732,20.3225 L76.7698537,21.4809375 L79.0706341,23.120625 L82.796,26.8654375 L84.0150244,29.184375 L85.5051707,32.663125 L87.0629268,35.1841875 L88.3468293,38.528875 L89.226439,41.592375 L89.5009756,45.20725 L89.702439,48.6165625 L89.5658537,52.562125 L89.6382439,55.77275 L88.8870244,59.9988125 L88.4185366,63.61575 L87.126439,68.1140625 L85.2333659,69.9551875 L83.812878,72.067875 L81.7818537,74.7945 L80.2240976,76.091125 L77.5845854,77.936375 L75.2100488,78.47675 L72.6388293,78.3385625 L69.8620488,78.27325 L68.0331707,77.724625 L66.4754146,76.635625 L64.9893659,75.538375 L63.7662439,74.72575 L62.280878,73.5631875 L60.992878,72.0025625 L59.9719024,70.6330625 L58.6197073,69.41 L57.4689756,67.5695625 L56.3872195,66.2729375 L55.0316098,63.8185625 L52.4562927,59.860625 L51.4387317,57.20275 L50.558439,56.11375 L50.2900488,57.9425 L51.0330732,60.33225 L52.116878,62.8519375 L53.9478049,65.9154375 L56.7273171,69.735875 L58.482439,71.64575 L60.247122,74.108375 L62.8183415,77.6469375 L66.883122,78.9476875 L70.4029268,80.179 L73.9227317,80.2443125 L77.1072195,80.114375 L79.2714146,78.7496875 L80.966439,77.1808125 L82.3910244,76.0265 L83.9446829,74.1173125 L86.4476098,71.6546875 L87.3272195,69.4106875 L88.6835122,67.02575 L89.5638049,64.436625 L90.1736585,61.433625 L90.7145366,58.9098125 L91.3196098,54.4115 L91.0532683,51.0675 L91.6590244,49.434 L91.456878,47.727625 L91.2554146,43.4995 L90.5123902,40.9110625 L89.9715122,38.795625 L88.4178537,36.540625 L86.8546341,32.0375 L85.772878,29.2455625 L84.3482927,25.6293125 L84.3482927,25.6293125 Z" id="Shape"></path>
                <path d="M35.5190244,27.5309375 L33.2182439,30.199125 L31.5232195,32.4465625 L30.3082927,33.67375 L29.3617561,35.512125 L27.5308293,37.89775 L25.768878,40.5576875 L25.0948293,42.73775 L23.7405854,45.808125 L23.2645854,48.8090625 L23.1273171,50.37725 L22.7879024,52.966375 L22.3139512,55.3513125 L21.2963902,58.5578125 L21.0949268,61.7643125 L21.0239024,63.06025 L21.0239024,65.242375 L21.2260488,68.64825 L21.2963902,71.784625 L21.3797073,73.183 C22.3139512,74.1255625 23.2604878,75.0399375 24.211122,75.9460625 L23.5329756,73.898 L23.3308293,70.6261875 L23.1976585,68.37875 L22.9961951,65.8549375 L23.4018537,61.1496875 L23.8717073,57.6021875 L24.4125854,55.4888125 L24.5498537,54.0588125 L24.752,51.121125 L25.3639024,48.3291875 L26.5180488,46.2158125 L27.3314146,43.423875 L28.4821463,41.1015 L29.969561,37.830375 L32.3406829,34.827375 L34.2337561,32.78275 L35.4548293,30.8061875 L37.1484878,27.94275 L37.0132683,26.8475625 L35.5190244,27.5309375 L35.5190244,27.5309375 Z" id="Shape"></path>
                <path d="M13.0252931,61.9664375 L12.9236396,63.2671875 L12.843122,63.4376875 C13.2094771,63.75875 13.5567093,64.0880625 13.920045,64.405 L13.920045,62.8485 L13.6231363,61.892875 L13.0252931,61.9664375 L13.0252931,61.9664375 Z" id="Shape"></path>
                <path d="M19.8082927,50.782875 L18.0463415,54.874875 L17.0998049,57.3986875 L16.3567805,59.642 L15.5413659,62.3074375 L15.4061463,64.5555625 L14.8693659,65.9814375 C15.2852683,66.485375 15.6943415,66.9975625 16.1245854,67.49325 L16.2154146,66.1890625 L16.2154146,64.75425 L16.9639024,63.1901875 L17.4385366,61.6900625 L17.910439,60.1865 L18.5182439,59.10575 L19.1260488,56.9848125 L19.4654634,54.8714375 L20.1436098,52.888 L20.6844878,50.7753125 L20.7548293,49.8939375 L20.3450732,49.6863125 L19.8082927,50.782875 L19.8082927,50.782875 Z" id="Shape"></path>
            </g>
        </g>
    </g>
</svg>