<?xml version="1.0" encoding="UTF-8" standalone="no"?>
<svg width="34px" height="33px" viewBox="0 0 34 33" version="1.1" xmlns="http://www.w3.org/2000/svg" xmlns:xlink="http://www.w3.org/1999/xlink">
    <!-- Generator: Sketch 40.3 (33839) - http://www.bohemiancoding.com/sketch -->
    <title>github</title>
    <desc>Created with Sketch.</desc>
    <defs></defs>
    <g id="Page-1" stroke="none" stroke-width="1" fill="none" fill-rule="evenodd">
        <g id="github" fill="#FFFFFF">
            <g id="Page-1">
                <g id="Github-black">
                    <g id="Icons">
                        <g id="Black">
                            <path d="M16.9989375,0 C7.61175,0 0,7.57391566 0,16.9189203 C0,24.392386 4.8705,30.7334126 11.6269375,32.9707999 C12.4769375,33.1262327 12.7871875,32.603894 12.7871875,32.1555707 C12.7871875,31.7537711 12.7723125,30.6900604 12.7638125,29.2784763 C8.034625,30.3009497 7.0369375,27.0104256 7.0369375,27.0104256 C6.2645,25.056412 5.1499375,24.5361881 5.1499375,24.5361881 C3.606125,23.4862229 5.2668125,23.5073703 5.2668125,23.5073703 C6.972125,23.6268527 7.8699375,25.2509674 7.8699375,25.2509674 C9.3871875,27.8362288 11.849,27.0897281 12.818,26.6562078 C12.9720625,25.5628911 13.4119375,24.8174478 13.8975,24.3945008 C10.1224375,23.967325 6.154,22.5166183 6.154,16.0339045 C6.154,14.1866853 6.8159375,12.676766 7.9039375,11.4935728 C7.728625,11.0653395 7.1453125,9.346062 8.0696875,7.01668328 C8.0696875,7.01668328 9.4976875,6.5620163 12.7446875,8.75076447 C14.1015,8.3753993 15.555,8.18824577 17.0010625,8.18084394 C18.445,8.18824577 19.8995625,8.3753993 21.2574375,8.75076447 C24.5023125,6.5620163 25.927125,7.01668328 25.927125,7.01668328 C26.8546875,9.346062 26.271375,11.0653395 26.0960625,11.4935728 C27.1861875,12.676766 27.843875,14.1866853 27.843875,16.0339045 C27.843875,22.5324786 23.8690625,23.9630953 20.0823125,24.3818127 C20.6921875,24.9041514 21.2361875,25.9361415 21.2361875,27.5147891 C21.2361875,29.7764961 21.2149375,31.6004531 21.2149375,32.1555707 C21.2149375,32.6081236 21.5209375,33.134692 22.3836875,32.9686851 C29.13375,30.7270681 34,24.3902712 34,16.9189203 C34,7.57391566 26.38825,0 16.9989375,0" id="Github"></path>
                        </g>
                    </g>
                </g>
            </g>
        </g>
    </g>
</svg>