<?xml version="1.0" encoding="UTF-8" standalone="no"?>
<svg width="32px" height="28px" viewBox="0 0 32 28" version="1.1" xmlns="http://www.w3.org/2000/svg" xmlns:xlink="http://www.w3.org/1999/xlink">
    <!-- Generator: Sketch 40.3 (33839) - http://www.bohemiancoding.com/sketch -->
    <title>Shape</title>
    <desc>Created with Sketch.</desc>
    <defs></defs>
    <g id="Page-1" stroke="none" stroke-width="1" fill="none" fill-rule="evenodd">
        <path d="M31.984,9.282 C31.9,4.374 27.918,0 23,0 C20.156,0 17.65,1.488 16,3.672 C14.35,1.488 11.844,0 9,0 C4.082,0 0.1,4.374 0.016,9.282 L0,9.282 C0,9.312 0.006,9.34 0.006,9.37 C0.006,9.392 0,9.414 0,9.438 C0,9.576 0.034,9.68 0.04,9.812 C0.48,22.32 15.874,27.448 15.874,27.448 C15.874,27.448 31.494,22.326 31.956,9.832 C31.964,9.692 32,9.582 32,9.438 C32,9.414 31.994,9.392 31.994,9.37 C31.994,9.338 32,9.312 32,9.282 L31.984,9.282 L31.984,9.282 Z" id="Shape" fill="#FF5252"></path>
    </g>
</svg>