<?xml version="1.0" encoding="UTF-8" standalone="no"?>
<svg width="34px" height="34px" viewBox="0 0 34 34" version="1.1" xmlns="http://www.w3.org/2000/svg" xmlns:xlink="http://www.w3.org/1999/xlink">
    <!-- Generator: Sketch 40.3 (33839) - http://www.bohemiancoding.com/sketch -->
    <title>instagram</title>
    <desc>Created with Sketch.</desc>
    <defs></defs>
    <g id="Page-1" stroke="none" stroke-width="1" fill="none" fill-rule="evenodd">
        <g id="instagram" fill="#FFFFFF">
            <g id="Page-1">
                <g id="Instagram-black">
                    <g id="Icons">
                        <g id="Black">
                            <path d="M17.000034,0 C12.383077,0 11.8041526,0.0195698333 9.99092196,0.102302458 C8.18147029,0.184831792 6.94567937,0.472236625 5.864354,0.892512042 C4.74645383,1.32689108 3.79840492,1.90817704 2.85325733,2.85325733 C1.90817704,3.79840492 1.32689108,4.74645383 0.892512042,5.864354 C0.472236625,6.94567937 0.184831792,8.18147029 0.102302458,9.99092196 C0.0195698333,11.8041526 0,12.383077 0,17.000034 C0,21.616923 0.0195698333,22.1958474 0.102302458,24.009078 C0.184831792,25.8185297 0.472236625,27.0543206 0.892512042,28.135646 C1.32689108,29.2535462 1.90817704,30.2015951 2.85325733,31.1467427 C3.79840492,32.091823 4.74645383,32.6731089 5.864354,33.107556 C6.94567937,33.5277634 8.18147029,33.8151682 9.99092196,33.8976975 C11.8041526,33.9804302 12.383077,34 17.000034,34 C21.616923,34 22.1958474,33.9804302 24.009078,33.8976975 C25.8185297,33.8151682 27.0543206,33.5277634 28.135646,33.107556 C29.2535462,32.6731089 30.2015951,32.091823 31.1467427,31.1467427 C32.091823,30.2015951 32.6731089,29.2535462 33.107556,28.135646 C33.5277634,27.0543206 33.8151682,25.8185297 33.8976975,24.009078 C33.9804302,22.1958474 34,21.616923 34,17.000034 C34,12.383077 33.9804302,11.8041526 33.8976975,9.99092196 C33.8151682,8.18147029 33.5277634,6.94567937 33.107556,5.864354 C32.6731089,4.74645383 32.091823,3.79840492 31.1467427,2.85325733 C30.2015951,1.90817704 29.2535462,1.32689108 28.135646,0.892512042 C27.0543206,0.472236625 25.8185297,0.184831792 24.009078,0.102302458 C22.1958474,0.0195698333 21.616923,0 17.000034,0 L17.000034,0 L17.000034,0 Z M17.000034,3.06305787 C21.5391842,3.06305787 22.0768772,3.08040071 23.8694592,3.16218842 C25.5269422,3.23776758 26.4270794,3.51471175 27.0261134,3.74752321 C27.8196295,4.05591454 28.3859356,4.42429675 28.9807854,5.01921458 C29.5757033,5.61406442 29.9440855,6.18037054 30.2524768,6.97388662 C30.4852883,7.57292058 30.7622324,8.47305783 30.8378116,10.1305408 C30.9195993,11.9231228 30.9369421,12.4608158 30.9369421,17.000034 C30.9369421,21.5391842 30.9195993,22.0768772 30.8378116,23.8694592 C30.7622324,25.5269422 30.4852883,26.4270794 30.2524768,27.0261134 C29.9440855,27.8196295 29.5757033,28.3859356 28.9807854,28.9807854 C28.3859356,29.5757033 27.8196295,29.9440855 27.0261134,30.2524768 C26.4270794,30.4852883 25.5269422,30.7622324 23.8694592,30.8378116 C22.077147,30.9195993 21.5395213,30.9369421 17.000034,30.9369421 C12.4604787,30.9369421 11.9229203,30.9195993 10.1305408,30.8378116 C8.47305783,30.7622324 7.57292058,30.4852883 6.97388663,30.2524768 C6.18037054,29.9440855 5.61406442,29.5757033 5.01921458,28.9807854 C4.42436404,28.3859356 4.05591454,27.8196295 3.74752321,27.0261134 C3.51471175,26.4270794 3.23776758,25.5269422 3.16218842,23.8694592 C3.08040071,22.0768772 3.06305788,21.5391842 3.06305788,17.000034 C3.06305788,12.4608158 3.08040071,11.9231228 3.16218842,10.1305408 C3.23776758,8.47305783 3.51471175,7.57292058 3.74752321,6.97388662 C4.05591454,6.18037054 4.42429675,5.61406442 5.01921458,5.01921458 C5.61406442,4.42429675 6.18037054,4.05591454 6.97388663,3.74752321 C7.57292058,3.51471175 8.47305783,3.23776758 10.1305408,3.16218842 C11.9231228,3.08040071 12.4608158,3.06305787 17.000034,3.06305787 L17.000034,3.06305787 L17.000034,3.06305787 Z M17.000034,8.27027546 C12.1786753,8.27027546 8.27027546,12.1786753 8.27027546,17.000034 C8.27027546,21.8213247 12.1786753,25.7297245 17.000034,25.7297245 C21.8213247,25.7297245 25.7297245,21.8213247 25.7297245,17.000034 C25.7297245,12.1786753 21.8213247,8.27027546 17.000034,8.27027546 L17.000034,8.27027546 L17.000034,8.27027546 Z M17.000034,22.6666667 C13.8703715,22.6666667 11.3333333,20.1296285 11.3333333,17.000034 C11.3333333,13.8703715 13.8703715,11.3333333 17.000034,11.3333333 C20.1296285,11.3333333 22.6666667,13.8703715 22.6666667,17.000034 C22.6666667,20.1296285 20.1296285,22.6666667 17.000034,22.6666667 L17.000034,22.6666667 L17.000034,22.6666667 Z M28.1146595,7.92537733 C28.1146595,9.05205021 27.2012955,9.96534617 26.0746227,9.96534617 C24.9480171,9.96534617 24.0346538,9.05205021 24.0346538,7.92537733 C24.0346538,6.79870446 24.9480171,5.8853405 26.0746227,5.8853405 C27.2012955,5.8853405 28.1146595,6.79870446 28.1146595,7.92537733 L28.1146595,7.92537733 L28.1146595,7.92537733 Z" id="Instagram"></path>
                        </g>
                    </g>
                </g>
            </g>
        </g>
    </g>
</svg>