<?xml version="1.0" encoding="UTF-8" standalone="no"?>
<svg width="35px" height="66px" viewBox="0 0 35 66" version="1.1" xmlns="http://www.w3.org/2000/svg" xmlns:xlink="http://www.w3.org/1999/xlink">
    <!-- Generator: Sketch 40.3 (33839) - http://www.bohemiancoding.com/sketch -->
    <title>lightning icon</title>
    <desc>Created with Sketch.</desc>
    <defs></defs>
    <g id="Page-1" stroke="none" stroke-width="1" fill="none" fill-rule="evenodd">
        <g id="lightning-icon" fill="#F2DF9E">
            <path d="M34.8493986,19.14 L13.7567697,65.01 C13.4314336,65.615 12.8349839,66 12.1300888,66 C11.9674208,66 11.8047527,65.945 11.5878619,65.945 C10.7202987,65.67 10.2322945,64.845 10.3949626,64.02 L18.0945854,31.955 L2.20733544,35.915 C2.04466735,35.97 1.88199926,35.97 1.71933117,35.97 C1.2855496,35.97 0.797545333,35.805 0.526431852,35.53 C0.0384275853,35.145 -0.0700178072,34.54 0.0384275853,33.99 L7.90071854,1.265 C8.06338663,0.495 8.76828168,0 9.58162213,0 L22.4324011,0 C23.4084097,0 24.1675274,0.77 24.1675274,1.65 C24.1675274,1.87 24.1133047,2.145 23.9506366,2.365 L17.281245,20.735 L32.7889361,16.83 C32.9516042,16.775 33.1142723,16.775 33.2769404,16.775 C33.7649447,16.775 34.2529489,16.995 34.6325078,17.38 C35.0120667,17.875 35.1205121,18.535 34.8493986,19.14 L34.8493986,19.14 Z" id="Shape"></path>
        </g>
    </g>
</svg>