<?xml version="1.0" encoding="UTF-8" standalone="no"?>
<svg width="23px" height="32px" viewBox="0 0 23 32" version="1.1" xmlns="http://www.w3.org/2000/svg" xmlns:xlink="http://www.w3.org/1999/xlink">
    <!-- Generator: Sketch 40.3 (33839) - http://www.bohemiancoding.com/sketch -->
    <title>Shape</title>
    <desc>Created with Sketch.</desc>
    <defs></defs>
    <g id="Page-1" stroke="none" stroke-width="1" fill="none" fill-rule="evenodd">
        <path d="M10.484,31.458 C10.652,31.644 10.814,31.764 10.97,31.848 C10.972,31.85 10.976,31.85 10.978,31.852 C11.086,31.908 11.192,31.95 11.292,31.95 C11.392,31.95 11.498,31.908 11.606,31.852 C11.608,31.85 11.612,31.85 11.614,31.848 C11.77,31.764 11.932,31.644 12.1,31.458 C12.1,31.458 21.396,21.348 22.33,12.588 C22.386,12.136 22.424,11.678 22.424,11.212 C22.424,5.02 17.404,0 11.212,0 C5.02,0 0,5.02 0,11.212 C0,11.686 0.038,12.148 0.096,12.606 C1.054,21.362 10.484,31.458 10.484,31.458 L10.484,31.458 Z M11.212,4 C15.188,4 18.424,7.236 18.424,11.212 C18.424,15.188 15.188,18.424 11.212,18.424 C7.236,18.424 4,15.188 4,11.212 C4,7.236 7.236,4 11.212,4 L11.212,4 Z" id="Shape" fill="#00BCD4"></path>
    </g>
</svg>