<?xml version="1.0" encoding="UTF-8" standalone="no"?>
<svg width="27px" height="48px" viewBox="0 0 27 48" version="1.1" xmlns="http://www.w3.org/2000/svg" xmlns:xlink="http://www.w3.org/1999/xlink">
    <!-- Generator: Sketch 40 (33762) - http://www.bohemiancoding.com/sketch -->
    <title>Slice 1</title>
    <desc>Created with Sketch.</desc>
    <defs></defs>
    <g id="Page-1" stroke="none" stroke-width="1" fill="none" fill-rule="evenodd">
        <g id="Tumblr-black" fill="#FFFFFF">
            <g id="Icons">
                <g id="Black">
                    <path d="M24.740658,38.340738 C23.867109,38.766425 22.196509,39.136797 20.950767,39.168664 C17.189709,39.271478 16.45974,36.469336 16.429435,34.438001 L16.429435,19.495346 L25.863709,19.495346 L25.863709,12.227393 L16.462094,12.227393 L16.462094,0 L9.582268,0 C9.468992,0 9.271274,0.101311 9.243323,0.358347 C8.840825,4.100549 7.127268,10.668643 0,13.294919 L0,19.495046 L4.75465,19.495046 L4.75465,35.177843 C4.75465,40.54794 8.631338,48.176945 18.865311,47.99687 C22.318317,47.936444 26.153225,46.459765 27,45.184807 L24.740658,38.340738" id="Tumblr"></path>
                </g>
            </g>
        </g>
    </g>
</svg>