<?xml version="1.0" encoding="UTF-8" standalone="no"?>
<svg width="19px" height="34px" viewBox="0 0 19 34" version="1.1" xmlns="http://www.w3.org/2000/svg" xmlns:xlink="http://www.w3.org/1999/xlink">
    <!-- Generator: Sketch 40.3 (33839) - http://www.bohemiancoding.com/sketch -->
    <title>tumblr</title>
    <desc>Created with Sketch.</desc>
    <defs></defs>
    <g id="Page-1" stroke="none" stroke-width="1" fill="none" fill-rule="evenodd">
        <g id="tumblr" fill="#FFFFFF">
            <g id="Page-1">
                <g id="Tumblr-black">
                    <g id="Icons">
                        <g id="Black">
                            <path d="M17.4100927,27.1580228 C16.795373,27.459551 15.6197656,27.7218979 14.7431323,27.7444703 C12.0964619,27.8172969 11.58278,25.8324463 11.5614543,24.393584 L11.5614543,13.8092034 L18.2003878,13.8092034 L18.2003878,8.66107004 L11.5844365,8.66107004 L11.5844365,0 L6.74307748,0 C6.66336474,0 6.52422985,0.0717619583 6.50456063,0.253829125 C6.2213213,2.90455554 5.01548489,7.55695546 0,9.41723429 L0,13.8089909 L3.34586481,13.8089909 L3.34586481,24.9176388 C3.34586481,28.7214575 6.07390452,34.125336 13.2755892,33.9977829 C15.7054823,33.9549812 18.4041213,32.9090002 19,32.005905 L17.4100927,27.1580228" id="Tumblr"></path>
                        </g>
                    </g>
                </g>
            </g>
        </g>
    </g>
</svg>